<?xml version="1.0"?><svg version="1.2" baseProfile="tiny-ps" viewBox="0 0 300 300" xmlns="http://www.w3.org/2000/svg" xmlns:xlink="http://www.w3.org/1999/xlink"><title>Blossom</title><g><g fill="#e5e3c6" transform="matrix(.1 0 0 -.1 0 300)"><path d="M1336 2889c-26-4-55-11-65-15-9-4-24-9-33-10-15-3-58-29-115-69-12-8-35-34-51-58l-29-42-11-44-11-44 5-73c2-41 2-74 0-74s-29 11-60 25l-57 25H756l-59-17-60-17-59-58-58-59v-15c0-8-3-14-8-14-8 0-50-104-52-130-1-8-3-46-5-85l-4-70 29-62c16-35 33-63 38-63s15-12 23-26l14-27 40-26c57-36 107-58 128-55 27 4 20-11-28-57l-45-43v-18c0-10-3-18-8-18-9 0-33-66-37-105-2-16-4-32-5-35s-2-8-1-12c0-3 1-33 2-65l2-58 30-65c17-36 48-87 70-113l40-48 54-35 55-35 46-8c26-5 72-8 102-7l55 2 22 12c12 7 31 12 43 12 27 0 58 16 91 46l25 24-4-69-4-70 16-61 16-62 21-29 20-29h-14c-8 0-34 7-58 16l-44 15h-50c-61-1-153-24-222-56-28-14-56-25-61-25-14 0-62-77-62-99v-19l68-67 67-67 90-43 90-43 58-1 58-2 37 13c20 6 44 18 53 25 8 7 22 13 30 13s36 13 62 30l47 29 4-22c28-129 18-219-29-282-13-17-33-50-44-74l-19-44 11-24 11-24 85 6c47 3 94 8 103 11l17 5 11-21c6-11 17-20 24-20h14l36 54c20 30 36 62 36 70 0 9 4 16 8 16 8 0 35 77 51 150 13 57 16 152 7 205-7 38-35 114-46 125-3 3-13 20-22 38l-17 32 80-5 80-6 37 12c64 21 118 47 131 63 8 9 19 16 25 16 22 1 126 160 140 214l7 27-17 29-18 29-20 5c-12 3-72 8-135 11l-115 7-60-12-61-13-53-29-52-30-29-41c-15-23-36-57-45-76l-18-33-24 35c-13 20-29 56-36 82l-12 46 16 80 17 79 28 60 28 60h13c6 0 20-8 30-17 37-37 89-71 149-98l62-27 21 5 20 5 5-8 5-8 59 1c33 1 63 5 67 10 4 4 13 7 20 7 17 0 52 16 89 40 17 11 36 23 44 27s36 28 63 55c26 26 52 48 58 48 5 0 10 4 10 9s6 16 13 23c30 32 54 108 61 197l6 64-12 41c-7 23-23 61-36 86l-24 45-42 38c-22 21-58 45-79 54l-39 16 27 23c15 13 35 26 44 29 17 6 71 76 71 93 0 5 7 15 15 22l15 12v28c0 15 7 42 16 60l17 32-7 55-6 54-30 60-31 59-50 54-51 54-51 22-51 22-51 5-50 5-30-13c-16-6-42-13-57-15s-53-19-84-38l-58-34-21 72-21 71-37 55c-20 30-46 66-57 79l-20 24-83 8c-45 5-91 10-102 12s-42 0-69-4z"/></g><g fill="#c2d750" transform="matrix(.1 0 0 -.1 0 300)"><path d="M1336 2889c-26-4-55-11-65-15-9-4-24-9-33-10-15-3-58-29-115-69-12-8-35-34-51-58l-29-42-11-44-11-44 5-73c2-41 2-74 0-74s-29 11-60 25l-57 25H756l-59-17-60-17-59-58-58-59v-29h-22l5-20 5-20-8 5-8 5-15-42c-9-24-16-50-17-58 0-8-3-41-6-74l-6-58 14 8 13 8-14-17-13-17 30-65c17-36 35-65 40-65s15-12 23-26l14-27 40-26c57-36 107-58 128-55 27 4 20-11-28-57l-45-43v-18c0-10-3-18-8-18-9 0-33-66-37-105-2-16-4-32-5-35s-2-8-1-12c0-3 1-33 2-65l2-58 30-65c17-36 48-87 70-113l40-48 54-35 55-35 46-8c26-5 72-8 102-7l55 2 22 12c12 7 31 12 43 12 27 0 58 16 91 46l25 24-4-69-4-70 16-61 16-62 21-29 20-29h-14c-8 0-34 7-58 16l-44 15h-50c-61-1-153-24-222-56-28-14-56-25-61-25-14 0-62-77-62-99v-19l68-67 67-66 81-41 81-40 63-5 64-5 41 13c22 7 47 19 56 26 8 7 23 13 31 13 9 0 39 16 68 35l52 35 9-6 10-6-11-13-10-12 5-49c4-26 8-51 10-54 2-4-2-36-10-73l-14-67-25-33c-14-18-34-52-45-76l-19-44 11-24 11-24 85 6c47 3 93 8 102 11l17 5 14-14 14-14 21 8 22 8 26 40c14 22 25 47 25 56 0 8 4 15 8 15 8 0 35 77 51 150 13 57 16 152 7 205-7 38-35 114-46 125-3 3-13 20-22 38l-17 32 80-5 80-6 37 12c64 21 118 47 131 63 8 9 19 16 25 16 22 1 126 160 140 214l7 27-17 29-18 29-20 5c-12 3-72 8-135 11l-115 7-60-12-61-13-53-29-52-30-29-41c-15-23-36-57-45-76l-18-33-24 35c-13 20-29 56-36 82l-12 46 16 80 17 79 28 60 28 60h13c6 0 20-8 30-17 37-37 89-71 149-98l62-27 21 5 20 5 5-8 5-8 59 1c33 1 63 5 67 10 4 4 13 7 20 7 17 0 52 16 89 40 17 11 36 23 44 27s36 28 63 55c26 26 52 48 58 48 5 0 10 4 10 9s6 16 13 23c30 32 54 108 61 197l6 64-12 41c-7 23-23 61-36 86l-24 45-42 38c-22 21-58 45-79 54l-39 16 27 23c15 13 35 26 44 29 17 6 71 76 71 93 0 5 7 15 15 22l15 12v28c0 15 7 42 16 60l17 32-7 55-6 54-30 60-31 59-50 54-51 54-51 22-51 22-51 5-50 5-30-13c-16-6-42-13-57-15s-53-19-84-38l-58-34-21 72-21 71-38 57c-21 32-52 70-69 84l-31 26-4-11c-2-6-8-11-13-11h-10l6 11 7 10-13-2c-12-2-42 1-139 15-8 1-37-1-64-5zm139-99c-3-5-13-10-21-10s-14-4-14-10c0-5-6-10-14-10-7 0-19-7-26-15s-17-15-22-15h-9l14 14c17 18 79 56 90 56h8l-6-10zm-260-40c-10-11-24-20-32-20h-13v-13c0-7-9-18-21-25l-20-13 11 20c9 18 76 71 89 71 2 0-4-9-14-20zm389-9 27-28-48-6c-26-3-49-4-51-2s4 14 12 27l16 25-7 6-6 7h14c9 0 28-13 43-29zm-104-46v-15h-31l13 15c16 18 18 18 18 0zm176-190-6-32-37 6-36 6-4 12-4 12 28 18c15 10 35 27 43 38l15 20 3-24c2-13 1-38-2-56zm221 49c-3-3-12-4-19-1l-13 5 19 1c11 1 17-2 13-5zm238-11 20-16-18 7c-10 3-23 6-28 6s-9 5-9 10c0 14 12 12 35-7zm-639-13v-20l-9 9-9 9 6 11c10 15 12 14 12-9zm679-28c-3-3-11 0-18 7l-12 12 18-7c10-3 15-9 12-12zm-1044-2h10l-5-18-6-19 24-11 24-11 23 5 24 5-50-24-50-25-12 16c-7 9-13 26-13 38s-3 30-7 40l-6 17 17-6c10-4 22-7 27-7zm926-6 2-9-34-17c-41-20-43-17-13 17 21 25 39 28 45 9zm63-33c0-5-9-11-20-14l-20-5v7c0 4 3 11 7 14 9 10 33 8 33-2zm-1197-20 11-11h-13c-8 0-20-8-27-17l-14-18-6 23c-3 12-10 22-15 22-15 0-47-37-70-82l-22-43-5 13-4 13 18 20c9 10 14 19 10 19-3 0 1 11 9 24l16 24-11 7-10 6 6 11 7 11 55-6 55-6 10-10zm841-3c-1-13-3-25-3-27-1-3-6 0-13 7l-11 11 13 16c16 20 17 19 14-7zm311-21c-20-11-29-3-21 19l6 16 16-13 15-12-16-10zm-1335 3v-20h-30v13c0 8 3 17 7 20 12 13 23 7 23-13zm258-14c20-13 42-30 49-37l11-14-19-24-19-23v21c0 12-5 30-12 40l-11 18-19-5-18-4v-31l-7 7c-4 3-8 12-9 19s-3 17-4 22c-9 41 7 44 58 11zm537 4c-3-5-10-10-16-10-5 0-9 5-9 10 0 6 7 10 16 10h15l-6-10zm725-28v-17l-10 15c-5 8-10 19-10 23v8l10-6c6-3 10-14 10-23zm-756-6c-3-8-13-17-22-21l-16-6 19 21c21 24 26 25 19 6zm-574-16c0-5-5-10-11-10h-10l6 10c3 6 8 10 11 10 2 0 4-4 4-10zm-220-10c0-5-5-10-11-10h-10l6 10c3 6 8 10 11 10 2 0 4-4 4-10zm1460 0c0-5-2-10-4-10-3 0-8 5-11 10l-6 10h10c6 0 11-4 11-10zm85-120c-22-43-27-37-10 11 8 23 16 60 17 83l2 41 3-52 4-52-16-31zm-693 88-12-12v10c0 6 3 14 7 17 3 4 9 5 12 2 2-3-1-11-7-17zm159-29c-16-9-37-19-47-21l-19-4 2-10 2-11h-29v28l18 5c9 3 24 10 32 15s23 12 33 15c9 4 17 11 17 18v11l9-15 10-14-28-17zm324 31c-3-5-13-10-21-10h-15l6 10c3 6 13 10 21 10h15l-6-10zm-755-5c0-2-9-9-20-15l-20-10 6 15c5 13 34 22 34 10zm530-84c0-6-5-13-12-17l-11-7 7 11 6 10-12 5-13 5 18 1 17 1v-9zm-226-10 6-9-15-5-14-6 6 15c6 16 10 17 17 5zm-1047-23-5-13-1 19c-1 11 2 17 5 13 3-3 4-12 1-19zm1224-9-23-19-10 6-9 6 10 12c5 6 20 12 33 13l23 2-24-20zm-211-14c-7-9-15-13-19-10-3 3 1 10 9 15 21 14 24 12 10-5zm-1023-17-5-13-1 19c-1 11 2 17 5 13 3-3 4-12 1-19zm993 12v-10h-35l15 10c19 12 20 12 20 0zm200-20c0-5-4-10-10-10-5 0-10 5-10 10 0 6 5 10 10 10 6 0 10-4 10-10zm-216-14c-3-8-12-17-20-20-18-7-18-1 2 18 19 20 25 20 18 2zm261-25c-3-6-11-11-17-11h-10l12 15c14 17 26 13 15-4zm-1032-10 5-20-14 6-13 5 6 14c7 19 10 18 16-5zm677-5c0-3-4-7-9-11l-10-5-6 10-6 10h15c9 0 16-2 16-4zm290-16c-6-11-15-20-21-20h-10l5-9 6-9-15-6-15-5v8c0 9 46 61 55 61 3 0 1-9-5-20zm305-48-6-6-9 14c-6 8-10 24-9 35v20l15-28 16-29-7-6zm-1463 6-5-22-7 20c-8 21-3 37 10 29l8-5-6-22zm548 1c0-5-4-9-10-9-5 0-10 7-10 16v15l10-6c6-3 10-10 10-16zm496 6c-11-8-24-15-30-15-5 0-1 7 10 15 10 8 24 14 29 14 6 0 1-6-9-14zm-526-22v-16l-7 6-6 7-13-11-12-10 3 18c2 10 4 19 4 21 1 1 8 2 16 2h15v-17zm695 7 6-10h-10c-6 0-11 5-11 10 0 6 2 10 4 10 3 0 8-4 11-10zm-564-43-11-11v15c0 9 3 19 7 23l8 7 3-11c3-7-1-17-7-23zm-583-13c1-1 0-9-4-18l-6-17-20 18c-11 10-24 26-29 35l-9 17 32-17 36-18zm937 27 6-10-21 4-21 4 3-17 3-17-13 3-13 2 5-8 5-8-17-15c-10-8-25-20-34-27l-16-13-6 16-6 16 12-7 11-7-6 15-6 16 22 20c43 38 80 51 92 33zm-174-72c-34-32-64-59-67-59-8 0 17 33 34 43 7 5 10 12 7 17l-5 8 26 6c15 4 24 9 21 12-8 8 26 42 36 36l8-4-60-59zm495 56c-11-8-22-12-25-9-6 6 19 24 34 24 6-1 1-7-9-15zm-859-22c-3-3-11-2-17 2l-12 8 13 8 14 8 4-10c1-6 1-13-2-16zm139-21-29-27 23 32c13 18 26 30 29 28 3-3-8-18-23-33zm-446 18c0-5-4-10-10-10-5 0-9-3-8-7 0-5-1-15-5-23-3-8-7-21-9-27l-3-13-30 25-30 24 21-5 21-5 17 25c17 26 36 35 36 16zm968-2c-3-7-14-18-26-24s-20-13-17-16-4-13-15-23l-20-18 16 31 15 32h29v30h22l-4-12zm-688-10c0-7-4-19-9-27l-8-13-8 11c-8 15 1 41 15 41 5 0 10-6 10-12zm560-13c0-8-2-15-4-15s-13-3-23-6l-18-6 18 12 17 11-5 10-6 9h10c6 0 11-7 11-15zm340-21c0-2-7-4-15-4s-15 4-15 10v9l15-5c8-4 15-8 15-10zm-1110-6c0-7-6-20-13-29l-12-16-12 4-12 4 15 25c18 26 34 32 34 12zm1280 2 15-10h-14c-8 0-20-8-27-17l-14-18-10 15c-5 8-10 21-10 28v12h23c12 0 29-5 37-10zm-1178-35-4-25h-69l6 10c3 6 12 10 19 10 8 0 19 7 26 15s16 15 20 15h7l-5-25zm928 18c0-5-5-15-10-23l-10-15v45h10c6 0 10-3 10-7zm350-14 35-20-33 7-33 6-14-12-15-12v10c0 16 11 42 19 42 3-1 22-10 41-21zm-766-13c-10-8-21-12-23-10-3 2 4 11 15 18 10 8 21 12 23 10 3-2-4-11-15-18zm-109 4 6-10h-10c-6 0-11 5-11 10 0 6 2 10 4 10 3 0 8-4 11-10zm795-45c-7-9-15-13-18-10-3 2 1 11 8 20s15 13 18 10c3-2-1-11-8-20zm179-29c12-18 21-36 21-39s-17-5-37-3l-38 4-6 38c-4 22-5 42-2 47l4 7 19-10c10-5 28-25 39-44zm-1262 8c0-22-13-16-25 11l-12 25 19-11c10-7 18-18 18-25zm327 27 6-9-20 5c-23 6-26 13-6 13 8 0 17-4 20-9zm83-21c-21-35-36-25-16 11l10 20 9-6 10-6-13-19zm117-4c-5-14-34-31-34-20 0 8 24 33 32 34h7l-5-14zm-604-124c-6-2-25-16-43-30l-31-27 24 40c13 22 29 45 35 51l10 12 8-21 8-22-11-3zm416 32c-14-14-21-35-17-56l1-8h-71l-5-15c-4-8-12-15-19-15s-15 7-19 15l-5 15 12 1c7 1 17 2 22 4 6 1 16 3 23 3l13 2-6 10-7 11 24 18 23 19 7-11 8-12v35h31l-15-16zm264 2c0-3-4-8-10-11l-10-6v10c0 6 5 11 10 11 6 0 10-2 10-4zm696-74c-7-7-24 62-17 73l5 10 8-39c5-22 6-41 4-44zm-844 52c-12-8-22-22-22-30s-4-14-10-14c-12 0-12 2 0 34l10 26h44l-22-16zm110-6-12-12v10c0 6 3 14 7 17 3 4 9 5 12 2 2-3-1-11-7-17zm-399-47c-5-3-8-16-7-28l1-23-12-10-12-10-27 29-28 29 6 10 5 9h83l-9-6zm251-12c-3-5-10-9-16-9s-20-7-30-17c-24-22-32-12-11 14l17 21h46l-6-9zm-713-26c-12-20-14-14-5 12 4 9 9 14 11 11 3-2 0-13-6-23zm263 12 5-15h-16c-9 0-22-8-29-17l-13-18-1 13c0 12 30 50 41 51 4 1 9-6 13-14zm710-22c-9-16-26-34-36-41s-16-17-14-21c3-4-8-20-24-36l-29-27-40-8-41-7-22 18c-26 23-37 24-44 4l-6-15-27 1c-14 1-37 4-51 8l-25 7 30 15 30 14 10 23 10 22 11-4c6-2 16 0 22 6l10 10 11-6 10-7-6-29-5-30h32v-21l23 6c12 4 27 13 33 20 6 8 35 30 64 50 30 20 60 45 68 56 21 30 27 22 6-8zm-424 7c0-5-4-10-10-10-5 0-10 5-10 10 0 6 5 10 10 10 6 0 10-4 10-10zm1033-42c-15-54-30-88-38-88-3 0 14 67 24 90 1 3 4 15 7 28 4 12 10 22 15 22h8l-16-52zm-956 7c-4-8-11-15-17-15h-11l11 21c13 23 26 19 17-6zm-77-15-10-19 6-15 6-15-22 6c-11 3-25 13-29 22l-9 16 14 13c8 7 14 9 14 5s5-2 12 5c6 6 15 9 20 6l8-5-10-19zm-265-2c-19-11-30-5-21 11l7 10 15-6 16-6-17-9zm-117-26 4-12-16 6c-9 3-16 11-16 16v10l12-4c6-2 14-10 16-16zm245-25 7 6v-10c0-15-24-23-40-13l-13 8 8 11 7 12 12-10 13-11 6 7zm-283-7c0-5-7-10-16-10h-15l6 10c3 6 10 10 16 10 5 0 9-4 9-10zm170-20c0-5-9-14-20-20l-21-11 13 20c13 22 28 28 28 11zm-200-14c0-3-4-8-10-11l-10-6v10c0 6 5 11 10 11 6 0 10-2 10-4zm380-10v-15l36-13 36-13-23-5-23-6-22 23-23 23-23 1-23 1 25 8c37 12 40 11 40-4zm-490-55v-25l-10 10c-5 5-13 25-16 44l-6 35 15-20 16-20 1-24zm180 45c0-3-4-8-10-11l-10-6v10c0 6 5 11 10 11 6 0 10-2 10-4zm843-27-6-20-11 11-11 11 15 9c8 5 16 10 17 10 0 0-1-9-4-21zm-773-7c0-5-9-19-20-32l-20-23-6 6-7 6 17 26c16 24 36 34 36 17zm-132-42-1-30h-27v23c0 13 3 27 7 30 14 14 22 6 21-23zm995 14 17-6v-30l-37 7c-21 4-42 9-46 12l-8 5 18 14c10 7 23 11 28 9 6-3 18-8 28-11zm-335-18-18-13 7-6 6-7h-15c-9 0-19-6-22-12-3-7-3-2 0 12 7 27 21 40 44 40l15-1-17-13zm452-20v-15l18-4 17-5-38-1-38-1 11 20c12 23 30 27 30 6zm-870-11c0-8-4-15-8-15-5 0-9 7-9 15s4 15 9 15c4 0 8-7 8-15zm100 7c0-13-12-22-22-16l-8 5 5 10c8 11 25 12 25 1zm-419-25c8-7 18-22 21-34l6-22-12 5c-15 6-50 64-39 64 4 0 15-6 24-13zm379-12v-15h-15c-16 0-20 12-8 23 11 12 23 8 23-8zm-100-13c0-14-24-32-43-32h-19l23 20c26 21 39 25 39 12zm-199-56 12 7-7-11-7-11 40-21c22-11 49-21 60-23s24-7 28-11l8-8-35 7c-19 5-40 8-47 8-6 0-31 18-55 40-24 21-35 34-26 27l17-12 12 8zm258-72c2-2-9-4-25-5-16 0-39-2-51-3-13-2-23-1-23 1s10 8 23 12l22 9 25-5c14-3 27-7 29-9zm252-92c1-29-1-55-4-59l-7-6v63c0 75 9 77 11 2zm428-24c-2-2-22-19-44-38l-40-35 34 38c19 20 39 37 45 37 5 0 7-1 5-2zm156-18c-3-5-11-10-16-10h-10l6 10c3 6 11 10 16 10h10l-6-10zm-468-22-5-13-1 19c-1 11 2 17 5 13 3-3 4-12 1-19zm-98-58 1-15-10 15c-5 8-9 24-9 35v20l9-20c5-11 9-27 9-35zm177-96 34-42-14-11-13-11-15 22c-16 25-58 145-57 162 0 6 8-9 16-34l16-45 33-41zm129 46c-4-12-9-19-12-17-3 3-2 15 2 27s9 19 12 17c3-3 2-15-2-27zm165-45 25-14-32-1h-33v15c0 18 8 18 40 0zm-652-52c-16-2-40-2-55 0l-28 4h110l-27-4zm146-52c-5-6-94 31-105 45l-11 14 60-27c33-16 58-30 56-32zm-420-36-6-15-9 6-9 5 5 10c4 5 10 9 15 9h9l-5-15zm766-36v-10l-10 6c-5 3-10 11-10 16v10l10-6c6-3 10-11 10-16zm-240-23c0-16-27-29-42-20l-11 7 24 13c30 17 29 17 29 0zm-400-47v-10l-28 15c-16 8-35 22-42 31l-14 17 42-22c23-12 42-26 42-31zm570-103v-20l-9 10c-5 5-11 32-15 59l-6 50 15-40c8-22 15-49 15-59zm124 19 5-15h-9c-6 0-10 7-10 15s2 15 4 15 6-7 10-15zm-42-227-12-12v10c0 14 12 26 19 19 2-3-1-11-7-17zm-162-119v-9l-17 1-18 1 13 5 12 5-6 10-7 11 11-7c7-4 12-11 12-17z"/></g><g fill="#cb9cca" transform="matrix(.1 0 0 -.1 0 300)"><path d="M1336 2889c-26-4-55-11-65-15-9-4-24-9-33-10-15-3-58-29-115-69-12-8-35-34-51-58l-29-42-11-44-11-44 5-73c2-41 2-74 0-74s-29 11-60 25l-57 25H756l-59-17-60-17-59-58-58-59v-29h-22l5-20 5-20-8 5-8 5-15-42c-9-24-16-50-17-58 0-8-3-41-6-74l-6-58 14 8 13 8-14-17-13-17 30-65c17-36 35-65 40-65s15-12 23-26l14-27 40-26c57-36 107-58 128-55 27 4 20-11-28-57l-45-43v-18c0-10-3-18-8-18-9 0-33-66-37-105-2-16-4-32-5-35s-2-8-1-12c0-3 1-33 2-65l2-58 30-65c17-36 48-87 70-113l40-48 54-35 55-35 46-8c26-5 72-8 102-7l55 2 22 12c12 7 31 12 43 12 27 0 58 16 91 46l25 24-4-69-4-70 16-61 16-62 21-29 20-29h-14c-8 0-34 7-58 16l-44 15h-50c-62-1-153-24-225-58l-55-26-32-35-33-36v-44l68-67 67-66 80-39 80-39 70-2c81-3 139 7 156 27 6 8 19 14 29 14s41 16 70 35 55 33 60 30c17-10 15-114-4-202l-15-73-25-33c-14-18-34-52-45-76l-19-44 11-24 11-24 80 7c45 3 108 7 141 9l60 3 22 34c12 18 22 41 22 51 1 9 5 17 9 17 8 0 35 77 51 150 13 57 16 152 7 205-7 38-35 114-46 125-3 3-13 20-22 38l-17 32 80-5 80-6 37 12c64 21 118 47 131 63 8 9 19 16 25 16 22 1 126 160 140 214l7 27-17 29-18 29-20 5c-12 3-72 8-135 11l-115 7-60-12-61-13-53-29-52-30-29-41c-15-23-36-57-45-76l-18-33-24 35c-13 20-29 56-36 82l-12 46 16 80 17 79 28 60 28 60h13c6 0 20-8 30-17 37-37 89-71 149-98l62-27 21 5 20 5 5-8 5-8 59 1c33 1 63 5 67 10 4 4 13 7 20 7 17 0 52 16 89 40 17 11 36 23 44 27s36 28 63 55c26 26 52 48 58 48 5 0 10 4 10 9s6 16 13 23c30 32 54 108 61 197l6 64-12 41c-7 23-23 61-36 86l-24 45-42 38c-22 21-58 45-79 54l-39 16 27 23c15 13 35 26 44 29 17 6 71 76 71 93 0 5 7 15 15 22l15 12v28c0 15 7 42 16 60l17 32-7 55-6 54-30 60-31 59-50 54-51 54-51 22-51 22-51 5-50 5-30-13c-16-6-42-13-57-15s-53-19-84-38l-58-34-21 72-21 71-27 43c-16 24-34 45-42 49l-15 5v31l-6-6-7-6-26 13c-61 32-76 36-181 50-8 2-37-1-64-5zm134-80c3-1 8-1 13 0 17 3 107-52 134-82l30-33 16-49 17-49v-40c0-23-3-51-6-63l-6-21-17-5-18-4-16 12c-9 7-15 14-12 17 2 2-12 5-33 7-65 4-77 6-83 14l-5 7-50-11c-27-5-62-13-79-16-16-3-42-14-57-24-14-11-34-19-45-19-10 0-44-11-76-24l-57-24-12 22-12 21v170l24 49 23 48 41 30c77 56 146 77 231 72 28-2 52-4 55-5zm601-235 54-16 51-53c28-28 59-67 68-86l18-34 5-60 5-60-23-50-22-49-37-36c-53-51-137-100-172-100h-18l-6 28c-9 42-23 72-33 72h-10l5 15 6 15-20 39c-27 51-105 152-133 171-12 8-33 25-48 36l-25 22 23 33c29 43 84 83 147 108 62 24 97 25 165 5zM962 2425c31-15 66-38 77-49l21-22-28-30c-39-44-72-91-72-104 0-5-4-10-8-10-11 0-57-106-54-122 1-5-1-8-6-8h-7l-1-43c0-23-3-63-6-89l-5-48h14l-5-25-5-26-63 2-64 2v18l-17-2c-28-5-86 28-131 74l-41 42-15 36-15 36 3 74c5 102 15 133 68 215l27 42 34 21c19 12 52 27 73 35l39 13 65-1 65-2 57-29zm573-15c-3-5-10-10-16-10-5 0-9 5-9 10 0 6 7 10 16 10h15l-6-10zm-31-34c-3-8-13-17-22-21l-16-6 19 21c21 24 26 25 19 6zm58-58-12-12v10c0 6 3 14 7 17 3 4 9 5 12 2 2-3-1-11-7-17zm159-29c-16-9-37-19-47-21l-19-4 2-10 2-11h-29v28l18 5c9 3 24 10 32 15s23 12 33 15c9 4 17 11 17 18v11l9-15 10-14-28-17zm-431 26c0-2-9-9-20-15l-20-10 6 15c5 13 34 22 34 10zm530-84c0-6-5-13-12-17l-11-7 7 11 6 10-12 5-13 5 18 1 17 1v-9zm-226-10 6-9-15-5-14-6 6 15c6 16 10 17 17 5zm177-32-23-19-10 6-9 6 10 12c5 6 20 12 33 13l23 2-24-20zm-211-14c-7-9-15-13-19-10-3 3 1 10 9 15 21 14 24 12 10-5zm-30-5v-10h-35l15 10c19 12 20 12 20 0zm200-20c0-5-4-10-10-10-5 0-10 5-10 10 0 6 5 10 10 10 6 0 10-4 10-10zm-216-14c-3-8-12-17-20-20-18-7-18-1 2 18 19 20 25 20 18 2zm261-25c-3-6-11-11-17-11h-10l12 15c14 17 26 13 15-4zm-355-15c0-3-4-7-9-11l-10-5-6 10-6 10h15c9 0 16-2 16-4zm290-16c-6-11-15-20-21-20h-10l5-9 6-9-15-6-15-5v8c0 9 46 61 55 61 3 0 1-9-5-20zm-610-41c0-5-4-9-10-9-5 0-10 7-10 16v15l10-6c6-3 10-10 10-16zm496 6c-11-8-24-15-30-15-5 0-1 7 10 15 10 8 24 14 29 14 6 0 1-6-9-14zm-526-22v-16l-7 6-6 7-13-11-12-10 3 18c2 10 4 19 4 21 1 1 8 2 16 2h15v-17zm695 7 6-10h-10c-6 0-11 5-11 10 0 6 2 10 4 10 3 0 8-4 11-10zm-564-43-11-11v15c0 9 3 19 7 23l8 7 3-11c3-7-1-17-7-23zm354 14 6-10-21 4-21 4 3-17 3-17-13 3-13 2 5-8 5-8-17-15c-10-8-25-20-34-27l-16-13-6 16-6 16 12-7 11-7-6 15-6 16 22 20c43 38 80 51 92 33zm-174-72c-34-32-64-59-67-59-8 0 17 33 34 43 7 5 10 12 7 17l-5 8 26 6c15 4 24 9 21 12-8 8 26 42 36 36l8-4-60-59zm495 56c-11-8-22-12-25-9-6 6 19 24 34 24 6-1 1-7-9-15zm-859-22c-3-3-11-2-17 2l-12 8 13 8 14 8 4-10c1-6 1-13-2-16zm139-21-29-27 23 32c13 18 26 30 29 28 3-3-8-18-23-33zm522 16c-3-7-14-18-26-24s-20-13-17-16-4-13-15-23l-20-18 16 31 15 32h29v30h22l-4-12zm-688-10c0-7-4-19-9-27l-8-13-8 11c-8 15 1 41 15 41 5 0 10-6 10-12zm560-13c0-8-2-15-4-15s-13-3-23-6l-18-6 18 12 17 11-5 10-6 9h10c6 0 11-7 11-15zm340-21c0-2-7-4-15-4s-15 4-15 10v9l15-5c8-4 15-8 15-10zm262-30c26-13 63-40 82-59l35-35 11-41c6-22 12-65 14-94l3-54-19-58-18-58-42-43c-24-24-67-59-97-78l-53-34-42-10c-22-5-66-10-96-10h-55l-69 24-69 24-26 26-25 26 21 20c12 11 27 20 32 20 6 0 15 9 21 20l11 20h14c8 0 20 8 27 19 7 10 18 20 23 21 6 2 27 26 47 53l37 50-6 10-6 10 11-7 12-7 1 8c1 4 3 19 4 32s8 27 15 31l13 8-7 11-7 11h36l-15 10-15 10h25v25c0 14 4 25 8 25 8 0 13 26 13 78v34l52-7 52-7 47-24zm-342 9c0-5-5-15-10-23l-10-15v45h10c6 0 10-3 10-7zm-416-27c-10-8-21-12-23-10-3 2 4 11 15 18 10 8 21 12 23 10 3-2-4-11-15-18zm-109 4 6-10h-10c-6 0-11 5-11 10 0 6 2 10 4 10 3 0 8-4 11-10zm-288-66c0-22-13-16-25 11l-12 25 19-11c10-7 18-18 18-25zm327 27 6-9-20 5c-23 6-26 13-6 13 8 0 17-4 20-9zm83-21c-21-35-36-25-16 11l10 20 9-6 10-6-13-19zm117-4c-5-14-34-31-34-20 0 8 24 33 32 34h7l-5-14zm-544-203c11-14 20-22 20-17s11-3 26-16c14-14 35-35 48-47 13-13 27-23 32-23s16-9 24-20l14-20h36v-29l51-18 50-18-5-28c-6-30-26-60-88-131l-37-42-44-22-44-22-49-2c-27-1-71 2-99 6-27 4-51 7-53 7-5-3-55 38-104 85l-46 44-27 69-27 68 11 74 12 74 19 40c11 22 40 61 66 87l46 47 42 9 41 8 33-69c18-38 41-81 52-94zm356 111c-14-14-21-35-17-56l1-8h-71l-5-15c-4-8-12-15-19-15s-15 7-19 15l-5 15 12 1c7 1 17 2 22 4 6 1 16 3 23 3l13 2-6 10-7 11 24 18 23 19 7-11 8-12v35h31l-15-16zm264 2c0-3-4-8-10-11l-10-6v10c0 6 5 11 10 11 6 0 10-2 10-4zm-148-22c-12-8-22-22-22-30s-4-14-10-14c-12 0-12 2 0 34l10 26h44l-22-16zm110-6-12-12v10c0 6 3 14 7 17 3 4 9 5 12 2 2-3-1-11-7-17zm-399-47c-5-3-8-16-7-28l1-23-12-10-12-10-27 29-28 29 6 10 5 9h83l-9-6zm251-12c-3-5-10-9-16-9s-20-7-30-17c-24-22-32-12-11 14l17 21h46l-6-9zm260-36c-9-16-26-34-36-41l-18-13 5-9 5-8-35-31-36-31-32-1c-68-3-153 2-182 9l-30 8 30 15 30 14 10 23 10 22 11-4c6-2 16 0 22 6l10 10 11-6 10-7-6-29-5-30h32v-21l23 6c12 4 27 13 33 20 6 8 35 30 64 50 30 20 60 45 68 56 21 30 27 22 6-8zm-424 7c0-5-4-10-10-10-5 0-10 5-10 10 0 6 5 10 10 10 6 0 10-4 10-10zm77-35c-4-8-11-15-17-15h-11l11 21c13 23 26 19 17-6zm-77-15-10-19 6-15 6-15-22 6c-11 3-25 13-29 22l-9 16 14 13c8 7 14 9 14 5s5-2 12 5c6 6 15 9 20 6l8-5-10-19zm238-185 12-4-20-37c-24-42-47-136-53-214l-4-55 9-30c6-16 13-39 18-50s17-40 28-65c10-25 28-56 40-70 60-69 140-179 155-210 16-36 23-64 32-139l5-41-16-72c-9-40-22-82-29-93s-18-37-25-58l-12-38-23-9c-27-10-135-23-135-16 0 3 15 34 34 68 19 35 40 83 46 108l12 45v70l1 70-18 65c-27 103-81 198-158 280-18 19-41 47-51 62l-18 27-5 79-6 79 23 69c12 38 37 97 56 130l33 61 28-4c16-3 34-6 41-8zm550-290c39-4 72-9 72-11s-14-27-32-56c-41-69-83-114-136-145l-44-26-93-6-93-6-28 16-29 16-19-9-19-10 6 24c13 51 39 100 72 137l35 39 53 20c75 30 108 32 255 17zm-888-276 45-3 64-30 63-29 44-43c24-23 44-45 44-49 0-12-56-55-87-67-18-7-33-15-33-18 0-4-17-12-37-18l-38-11-64 9-64 9-61 30-61 30-54 49-55 48 55 31c30 17 79 39 109 48 72 22 74 23 80 20 3-2 25-4 50-6z"/></g><g fill="#b06cb5" transform="matrix(.1 0 0 -.1 0 300)"><path d="m1348 2892-38-3v-18l-15 5-14 6-13-8c-7-5-22-10-33-11-11-2-28-13-38-25l-18-22-19-1c-41-3-110-92-127-162l-11-43 4-75c2-41 2-75 0-75s-29 11-60 25l-57 25H756l-59-17-60-17-59-58-58-59v-15c0-8-5-14-11-14h-10l2-17c1-10 1-24 0-31l-1-13-9 6-9 5-10-32c-6-18-11-40-11-48-1-8-4-39-6-68l-5-53 10 6 10 6v-8c0-5-5-14-11-20l-12-12 32-66 31-66 8 5 8 5 13-30 13-30 42-27c58-37 108-59 129-56 27 4 20-11-28-57l-45-43v-18c0-10-4-18-9-18-8 0-25-56-22-72 0-5-4-8-10-8h-11l4-25 5-25-9-6c-4-3-6-9-3-13 2-5 5-35 6-67l2-59 30-65c17-36 48-87 70-113l40-48 54-35 55-35 46-8c26-5 72-8 102-7l55 2 22 12c12 7 31 12 43 12 27 0 58 16 91 46l25 24-4-69-4-70 16-61 16-62 22-31 22-30-30 6c-16 4-51 13-78 20l-49 14-56-9c-31-5-63-11-71-15-8-3-24-8-34-10-11-2-25-8-33-14-7-6-13-9-13-5 0 13-87-41-117-73l-33-35v-44l68-67 67-66 80-39 80-39 70-3c76-2 131 7 155 27 8 7 27 15 42 19 14 3 47 22 72 41s47 32 47 27c14-80 13-126-4-207l-15-70-36-54c-41-61-51-90-42-126l7-26 87 7c48 3 98 8 112 9 14 2 39 4 57 4l31 1 21 36c12 19 21 42 21 50s4 14 8 14c9 0 38 86 48 140 10 59 20 161 15 165-2 3-5 24-7 47-2 24-9 55-15 70l-11 28-8-5-8-5 2 17c2 10 0 20-3 23s-14 20-23 38l-17 32 80-5 80-6 37 12c64 21 118 47 131 63 8 9 19 16 25 16 22 1 126 160 140 214l7 27-17 29-18 29-21 5c-12 3-75 8-141 11l-119 6-63-15-63-14-49-32c-26-17-55-42-64-55-32-48-55-95-48-95 4 0 0-4-8-9l-14-10-23 34c-12 18-28 54-35 80l-12 46 16 80 17 79 28 60 28 60h13c6 0 20-8 30-17 37-37 89-71 149-98l62-27 21 5 20 5 5-8 5-8 59 1c33 1 63 5 67 10 4 4 13 7 20 7 17 0 52 16 89 40 17 11 36 23 44 27s36 28 63 55c26 26 52 48 58 48 5 0 10 4 10 9s6 16 13 23c30 32 54 108 61 193l6 60-12 48c-6 26-15 47-20 47-4 0-8 7-8 15 0 41-89 135-153 162l-39 16 27 23c15 13 35 26 44 29 17 6 71 76 71 93 0 5 7 15 15 22l15 12v28c0 15 7 42 16 60l17 32-7 55-6 54-31 60-30 61-52 54-52 54-60 25-60 24-7-12-8-12v25h-59l-6-10-6-9-14 5c-8 3-20 2-27-2-6-4-24-9-39-11-15-1-54-18-85-37l-58-34-21 72-21 71-27 43c-16 24-34 45-42 49l-15 5v31l-6-6-7-6-26 13c-49 26-76 35-116 40-22 3-49 7-60 8-11 2-37 2-57 0zm122-83c3-1 8-1 12 0 4 0 35-13 68-30l60-30 11-22c7-12 15-24 19-27 14-10 41-108 42-152v-45l-11-21-11-21-21 4c-12 2-27 9-35 16-8 6-14 8-14 4s-6-3-13 3c-26 22-154 30-188 12-10-6-28-10-41-10h-23l-25-20c-14-11-33-20-43-20-9 0-44-11-77-24l-59-24-13 15-12 15v183l22 48c12 27 32 57 45 68 31 26 125 71 167 79 29 6 122 5 140-1zm601-235 54-16 53-55 54-54 20-45 20-46v-52l1-52-23-44c-41-80-139-156-237-185l-23-6-1 18c-1 10-2 31-4 47l-2 29-14 11-14 11-2 30-2 30-20 16c-11 9-18 19-14 22 3 3-12 28-33 54-39 48-62 71-119 117l-29 24 24 34 24 35 45 31c89 60 152 72 242 46zM943 2437c28-13 66-36 84-50l31-27-11-25c-7-14-19-27-27-30-15-6-60-69-60-86 0-5-4-9-8-9-11 0-57-106-54-122 1-5-1-8-6-8h-7l-1-43c0-23-3-64-6-90l-5-48 16 6 16 6-12-12c-7-7-13-22-13-32v-19l-67 5c-77 6-84 7-133 29l-35 15-46 46-46 46-13 46-13 45 6 63c9 96 19 127 69 203l27 42 34 21c52 32 100 46 167 49l60 3 53-24zm518-21 9 5-1-8c-1-4-1-16 0-26l1-18 15 15c8 8 15 19 15 25v11h19c11 0 23-4 26-10l6-10h-10c-6 0-11-5-11-11v-10l10 6 10 6v-20l14 5 15 6-6-21-5-21h13l14-1-30-24c-16-14-36-25-42-25h-13v18l-1 17-13-25c-8-14-12-28-10-32l5-8h-31v-25l-10 15-10 15-1-12c-1-7-2-19-3-25-1-7-18-23-38-36l-38-23v-41l16 6 17 6-14-16-14-17-13 34-14 34 23 15c37 24 95 90 91 103-2 7 13 11 31 8 15-2 7 28-10 38-10 6-14 11-10 11h8l-6 9-5 10-30-9-30-9 5 10 6 9h-31v-29l-15 5-16 6 12 14 11 14h-12c-23 0-3 11 25 14l27 3 5-13c3-8 10-14 16-14h11l-12 12-11 11 11 21 11 21 5-13 4-12 9 6zm182-33c14-8 7-21-15-28-36-12-43-11-43 5 0 8-4 21-9 29l-9 13 34-7c19-4 37-9 42-12zm-308-3 6-10h-32l6 10c3 6 8 10 10 10s7-4 10-10zm-95-14c0-3-4-8-10-11l-10-6v10c0 6 5 11 10 11 6 0 10-2 10-4zm98-27 3-16-15-6-15-6 6 15 5 14-23-1-24-1 13-5c21-8 13-23-23-40-19-9-36-22-39-30l-5-13h30l-15-15c-8-8-21-15-28-15h-13l15 10c19 12 8 22-14 14l-17-7-6-28c-3-16-10-32-14-35l-9-5 5-10 6-9h-23l5 13 4 12-16 13-16 12 18-6 17-6v40l23 15c12 8 46 38 76 66l54 52 16-3 16-3 3-16zm92-20v-10l-9 5-9 6-4-12-4-12-6 15-6 15 19 1 19 2v-10zm323-3c9-7 17-16 17-20v-7l-10 6-10 6-1-13c-1-7-1-17 0-21l1-8-20 11-20 11v-22l-12 7-11 7 6-9 6-10-10-14-9-15v23l-42-20-43-20-23-29-24-29-9 5-9 6v-30l13 3c6 1 9 1 4-1-4-3-5-9-1-14l5-9h-10c-5 0-11 5-13 12l-4 11-34-24c-19-13-40-31-47-39l-13-15 4-16 3-16h-13c-18 0-17 9 0 52 8 18 12 36 8 39-3 3 2 6 11 6h17v15c0 18 16 20 23 3l5-13 1 23 1 23-10-6c-18-11-11 1 12 21l21 19-7-12-7-13h32l5 15c4 8 13 15 21 15h14l-6 19-6 19 13 5c7 2 16 4 20 3 4 0 13 7 21 17l13 19 15-2c7-1 22-2 32-1l18 1-6 10-6 10 23 1 23 1-30 8-30 8h35l35 1 18-13zm-609-32 6-15-10 6c-6 3-10 10-10 16 0 14 7 11 14-7zm216-3c0-5-6-14-14-20l-14-12-7 11c-3 5-3 15 0 20 8 12 35 13 35 1zm465-50c3-7 4-15 3-16-2-1-20-12-40-24-21-12-37-25-37-29 1-4 1-13 0-21l-1-14-7 6-6 7-12-17-12-16-1 32c0 18-3 45-7 60l-6 27 28 12 28 12-24-20-24-21 13-12 13-12-7 13-7 12 13 1c7 1 22 1 33 0l20-2-15 11-15 10 18 11 17 10-6 10-6 10 21-13c11-7 23-19 26-27zm-505 19c0-5-4-10-10-10-5 0-10 5-10 10 0 6 5 10 10 10 6 0 10-4 10-10zm226-2 7-11-11 7-12 7v-9c0-5-11-12-25-14-29-6-32 0-7 18 21 17 39 17 48 2zm-276-23v-15h-32l12 15c7 8 14 15 16 15s4-7 4-15zm-223-35 2-20h-10c-10 0-12 23-2 33 9 9 9 10 10-13zm795-36c-12-8-26-23-31-32l-9-17 22-16 22-17v32c-1 17 2 32 7 34 4 1 7-1 8-5 0-5 7-12 15-16s14-16 14-25v-17l-10 15-9 15 2-23 1-22 13 4 13 5v-21l-22 5-22 6-13-11-13-10v43l-9-5c-5-4-16-3-25 0l-16 6 6 9 5 9h-10c-5 0-13-5-17-11l-6-11-9 13c-4 7-11 11-14 7-3-3 1-13 10-22l16-16h-41v21l-14-13-14-13 8-15c4-8 5-21 3-28l-5-12 16 6 16 6v37l21-4c32-6 32-9 3-39l-27-27-11 4c-13 4-26-9-45-45-8-16-17-28-21-28-11 0-85-75-82-83l2-8-10 6-10 6 6 11 7 11-14-5-14-5 3-25 3-26-28-6c-37-8-93-5-93 5 0 13 24 17 44 7l18-10-7 13-8 12 16-6 16-6 5 7c3 4-3 9-12 10s-26 3-37 6l-20 4-17-16-18-15 6-8 5-9h-11c-6 0-13 7-17 16l-6 17 10 16 10 16 28-3 27-4-8 14-7 13 23-20 23-20-6 17-6 17 9 6 9 5 6-10c3-5 11-10 16-10h10l-5 9-6 9 18 7c17 8 27 11 49 13 6 1 20 15 29 31l17 29 15-6 15-5-5 27-5 26 18-5 19-6v10c0 20-5 26-20 26h-15l-1 15c-1 8-2 19-2 24l-2 9-19-17-20-18-10 7-11 6v-23l-15 5-14 6-6-9-6-10h32l-2-12c-1-7-1-22 0-33l1-20 10 15 10 15v-11c0-6-16-25-35-42l-34-32-16 6c-20 8-19 13 7 35l21 19h-11c-6 0-27-15-47-34l-36-34 13-6c7-3 1-3-14 0l-26 6-11-21-11-20-15 5-14 6 5 13c3 7 17 16 30 19l25 7-16 15-16 16-22-18c-30-26-37-36-37-58v-18l15 5 14 6 7-10c10-17 0-19-39-8l-36 10 6 14 5 15-15-6-15-6-12 22c-14 26-6 37 14 20l15-12 13 5 13 5-17 1-18 1v13c0 8 3 17 7 20l6 7 14-18c8-9 12-12 9-6l-5 10 20 18c12 10 29 18 38 19l18 1-5 20-5 19 16-6 16-6 10 17 10 17 1-13v-13l22 15c28 20 49 21 22 1l-19-14 30 8 30 7 3 25c2 13 4 34 5 46l2 21 12-9 11-10 7 22 7 22 9-14 8-13-12-8-12-8h27l-6-15-5-15h9c6 0 10 5 10 11v11l32-4 32-5 65 42 66 43 6-9 6-10 27 26 27 25h-10c-6 0-11 5-11 12v12l17-17 17-17-22-16zm-727-11c-20-19-33-9-15 12l12 15 9-6 9-5-15-16zm280 17 6-10h-15c-9 0-16 5-16 10 0 6 4 10 9 10 6 0 13-4 16-10zm-217-45c-6-11-18-26-27-32l-16-13-19 4-18 5 6-30 6-29h-15c-8 0-18-7-23-16l-9-16-22 7-21 6v12c0 7 16 22 35 35l35 22v30h40l1 13c1 6 1 14 1 17s12 5 28 5l28 1-10-21zm22-21v-15l-10 6-10 6 5 10c9 14 15 11 15-7zm220 5c0-6-11-20-25-30l-24-20 6-16 6-16-15 6-16 6-6-15c-3-8-11-14-18-14s-29-17-50-37l-38-37v-30l-14 19-14 19 37 29c20 16 39 33 42 39 3 5 9 9 13 9 19-3 26 0 26 10v11l-16-6-16-6 5 12c2 7 10 12 16 11l11-3v15c0 8 5 15 10 15h10v34l11-11 12-12 14 15c17 17 33 18 33 3zm-196-37 5-8h-38l5 8c3 4 9 8 14 8s11-4 14-8zm286-6c0-15-29-30-39-20-3 3 3 12 13 20 24 17 26 17 26 0zm-503-2c-3-3-12-4-19-1l-13 5 19 1c11 1 17-2 13-5zm243-31c-7-10-26-27-42-36l-30-17 5-19 5-20-16 6-15 6 8-13 8-13-11 7-11 6-35-31c-20-17-36-37-36-44 0-6-13-30-28-51-16-21-31-47-35-57l-7-18-9 6-10 5 4 20 4 20h-9c-4 0-13 14-19 32l-11 32 10 10c10 10 11 8 14-16l1-13 19-3 19-4-6 16-6 15 22 16c12 8 29 15 39 15h18v39l15-5 15-6 7 18c3 11 11 22 17 27l11 7-15 10-15 10h17c9 0 23 6 30 13 7 8 27 20 43 28l30 15-3 15-3 14 11-11 12-12-12-19zm-75-2c-3-6-11-11-17-11h-10l12 15c14 17 26 13 15-4zm677-3-5-20-7 12c-4 6-11 11-16 10s-10 3-12 8l-3 10h48l-5-20zm45-36-13-32-9 7-8 8 5-15 5-15 16 3 16 3-1-23c-1-13-6-29-11-36l-10-13-17 16-17 16-27-10c-14-6-26-14-26-19 0-13-55-72-67-72-13 0-25-28-18-40 3-4-1-12-8-18l-12-10-1 24c-1 13 2 24 6 24s7 8 6 18l-1 17 11-2 10-2 14 37 14 37 6-25 6-25 13 23 12 22-23 10-23 11 23-5 22-4v20l24-4 25-5 6 14c3 8 2 19-1 25l-6 9-13-4-12-5-1 29-1 29h18l-5-15-6-15h11c6 0 11 4 11 9s14 14 31 20l31 10-8 13-7 13 12-11 12-11-14-31zm-264 12-5-14h-19c-21 0-24 11-8 27l11 11 14-5 13-5-6-14zm-593-10c0-2-12-14-26-27-22-21-30-37-34-72l-1-10-13 18-14 18 5 22c3 12 17 32 32 43l25 22 13-5c7-3 13-7 13-9zm755-25c-4-5-15-9-26-9h-19v13c0 8 3 17 6 20l7 6 19-10 19-10-6-10zm-710-19c-3-5-12-10-18-10h-12l15 10c19 12 23 12 15 0zm495-30c0-5-2-10-4-10-3 0-8 5-11 10l-6 10h10c6 0 11-4 11-10zm543-12c47-18 109-56 115-71 2-4 15-21 28-36l24-29-6-16-6-16h19l1-62 2-63-13-49-13-49-44-52-45-52-48-29c-27-16-60-35-74-43l-25-13-77-5-78-6-69 23-69 22-32 31c-18 17-33 35-33 40v8l9-6 9-5 15 15c9 8 20 15 26 15s15 9 21 20l11 20h14c8 0 20 8 27 19 7 10 18 20 23 21 6 2 27 26 47 53l37 50-6 10-6 10 11-7 12-7 1 8c1 4 3 19 4 32s8 27 15 31l13 8-7 11-7 11h36l-15 10-15 10h25v50h17l-5 25-4 25h20l-5 30-4 31 38-2c21-1 60-11 86-21zm-937-55c-1-1-12 0-24 4l-22 5v17c0 10 3 21 7 24l6 7 17-28c10-15 17-28 16-29zm458 32c-4-8-10-15-15-15h-8l5 15c4 8 10 15 15 15h8l-5-15zm226-16c0-10-4-19-9-19-12 0-19 21-13 37l4 13 9-6c5-3 9-14 9-25zm-49-36c-6-10-11-14-11-9v9l-20-18c-11-10-20-15-20-11 0 9 54 56 58 51 2-2-1-12-7-22zm-632-2 13-8-11-7-11-7 6-11 7-11-12 7-12 8 5 14 5 14h-8c-5 0-11-13-14-30l-6-30h-52l10 18c6 9 15 24 21 32l10 15v-46l-12 7-11 7 7-12 7-11 10 5c5 4 9 17 9 31v24h13c6 0 18-4 26-9zm87-86-3-20-14-1c-8 0-22 4-32 9l-19 9 18 19 17 19-6 6-7 7-6-17c-7-19-30-21-40-4l-7 11 11-7 12-7v15c0 8 6 16 13 19l12 4 27-21 26-21-2-20zm-356-5h11l-6-10-6-9 25-50c14-27 35-56 47-65l22-15 10 6 10 6-7-11-6-11 16-13c9-7 26-23 39-35 12-13 27-23 34-23 6 0 16-9 23-20l13-20h17c10 0 18-4 18-8 0-5 23-20 50-33l50-24-5-28c-3-16-15-42-27-58-83-108-126-142-202-159l-45-10-77 11-76 12-56 48c-50 44-102 108-102 124 0 4-7 23-16 42l-17 34 12 87 12 87 24 40c13 22 42 59 65 82l42 42 42 9 41 8 7-18c4-10 12-18 18-18zm165 30 6-10-15 6c-18 7-21 14-7 14 6 0 13-4 16-10zm100-62c6 2 9 10 7 18l-3 14h11c5 0 10-4 10-10 0-5 7-10 16-10h16l-4-12-5-13h-38l-14-19-14-18 14-9 14-8 3 14c3 15 14 19 40 16 6-1 12 2 12 7s14 24 31 41l31 33 52-20c28-12 44-21 36-21l-16-1-2-27c-2-22 5-32 7-10 1 4 10 16 21 27l20 20h52c61-1 77 2 98 15 8 5 21 10 28 11l12 2-6-9-5-9h10c6 0 11 5 11 10v10h36l17-20c21-25 21-29 1-52l-17-18 17-6 16-6-6-9-5-9h20l-2-20-1-20-13 5-14 5-9-24-9-23-43-35c-24-20-52-40-63-46l-20-10-55 3c-30 1-83 5-117 10l-63 7v8c0 5 5 12 12 16l11 7-8-14-8-14 20 18 20 17 8-7 8-8-7 13-7 12h26l13 41c7 23 11 44 8 46-8 9-26-8-26-24 0-8-11-28-25-45l-25-30v27l-10-15-9-15h-79l-22 20-21 19 23 20c13 12 24 29 24 39l2 17h-37l5-14 5-14-12-8-12-7 6 11 7 10-6 16-6 16-9-5-8-6 6-29 6-30h-13c-7 0-34 22-61 49l-50 48 37 28 36 27 11-11c6-6 15-11 19-11h9l-9 17-10 16 12 13 11 12 5-27 5-26 10 3zm589 30c-3-4-9-8-15-8-5 0-9 4-9 8 0 5 7 9 15 9h14l-5-9zm-668-13c-8-8-21-15-28-15l-13 1 19 14c26 20 42 19 22 0zm644-75v-9l-15 5c-8 4-15 8-15 10s7 4 15 4 15-4 15-10zm-250-276c0-2-9-20-20-40-39-68-64-231-46-299 8-29 25-73 49-125 6-14 22-38 35-55 166-214 170-221 187-354l5-41-16-72c-9-40-22-82-29-93s-18-37-25-58l-12-38-23-9c-27-10-135-23-135-16 0 3 15 34 34 68 19 35 40 83 46 108l12 45v143l-17 63c-28 106-76 188-173 297l-47 52-11 44-11 44 4 48c5 65 38 166 78 239l34 61 40-4c23-2 41-6 41-8zm538-289c39-4 72-9 72-11 0-11-68-114-94-142-63-68-129-93-244-95l-58-1-31 16-30 15-17-9-16-9v14c0 25 47 121 73 149 31 34 97 67 150 77 47 8 90 7 195-4zm-783-304 64-30 40-40c23-23 46-41 51-41 6 0 10-4 10-8 0-12-82-72-107-78-13-4-23-9-23-14 0-4-17-12-37-18l-38-11-65 9-65 9-71 36-71 36-42 43-43 44 54 30c43 25 120 54 172 66 5 1 32 1 58-1l49-3 64-29zm246 1591-10-19 22-10 22-10 14 14c15 16 15 16-16 32l-22 11-10-18zm29-392c0-5 5-10 11-10h10l-6 10c-3 6-8 10-11 10-2 0-4-4-4-10zm-113-17c-4-3-7-11-7-17v-10l12 12c6 6 9 14 7 17-3 3-9 2-12-2zm118-83-6-10h10c6 0 11 5 11 10 0 6-2 10-4 10-3 0-8-4-11-10zm128-156 7-12-15-6-15-5v19h-38l-31-32-31-32v42l-27 5c-34 6-53-1-53-20v-14l-9 6-10 5-6-19c-3-11-8-30-10-43-3-12-9-24-15-26-13-5-13-32 0-32 6 0 10 4 10 9v9l24-2 24-1-5-10-6-10 14 13c20 19 35 14 48-15l13-28-20 18-20 18-7-11-6-10-10 5-9 6v-42l10 6 10 6v-15c0-34 36-10 69 47 13 20 20 37 16 37-3 0 0 6 7 14l13 13 13-5 14-5-10-6c-5-3-14-16-21-28l-12-23h12c11 0 99 84 99 94 0 3-10 10-21 17l-21 11 6-10c3-6 3-17 0-26l-6-16h-17l-16 1 18 13c9 7 17 17 17 21v7l-16-6-17-6 14 17c7 10 15 20 16 22s9-2 17-8l14-12 7 21 7 22-12 12-13 11 6-11zm-330-11-13-5 1-16 1-17 4 11 5 12 19-5 20-5v32l-12-1c-7 0-19-3-25-6zm-185-20c-18-5-23-15-12-26 7-7 44 14 44 25 0 8-4 9-32 1zm109-47-7-17 14-15 15-14 6 10 6 10h-8c-4 1 3 8 17 16l25 15-27-5-26-6-4 12-4 12-7-18zm69-11-20-15h15c8 0 24 7 35 15l19 14h-15c-8 0-24-6-34-14zm-26-42v-18l8 10c4 6 11 13 16 18l9 7h-33v-17zm34-18-6-15h-56l-5-14c-8-21 4-28 22-12 9 8 25 16 35 17l19 4 3 18c3 21-5 22-12 2zm296-26v-10l10 6c6 3 10 8 10 11 0 2-4 4-10 4-5 0-10-5-10-11z"/></g><g fill="#646d71" transform="matrix(.1 0 0 -.1 0 300)"><path d="M1380 2891v-7l-35 4-35 4v-21l-15 5-15 6-15-12c-8-7-15-9-15-5s-6 2-13-4c-8-6-16-8-20-5-3 3-13-6-22-20l-17-26-10 6-9 6-25-17-26-16 6-14 5-14-11-7-11-7 8 13 8 13-12-4c-7-3-20-18-29-34-9-17-21-33-27-37-5-4-6-8-2-8h8l-11-20c-15-27-20-116-10-170 5-25 7-46 6-47s-28 11-61 27l-60 30-85-1h-85l-40-15c-22-9-46-16-54-16-8-1-40-28-73-60l-58-60 6-9 5-9-16-6-16-6 2-17c1-9 1-25 0-36l-1-20-10 15-10 15v-12c0-7 1-15 3-16 1-2-4-11-10-19l-13-15 4-31 3-32-8 6-8 5 1-38 1-38 10-6 9-6-10-20-11-20 30-64 30-63 9 14 10 15 1-15c1-8 1-19 0-23s6-10 14-13l15-6-5-9-6-8 43-28c59-38 110-60 131-57l17 2v-19c0-10-4-19-8-19-5 0-25-14-45-31l-37-32v-18c0-11-4-19-9-19h-8l-7-40-6-40h-10c-6 0-10-7-10-16v-15l11 7 11 6-13-23c-7-13-12-28-10-34 2-5 3-35 3-65v-55l31-65 30-65 45-53 45-54 26-11c14-6 36-20 48-31l23-19v36l7-7c5-4 8-13 8-19v-12h33c17 0 32-3 32-7v-6l63 2 62 2 22 12c12 7 33 12 47 12h26v23l6-6 7-6 19 10 19 10-7 11-7 11 11-7 12-7v9c0 6 6 12 13 15l13 5v-82c0-81 5-122 24-171l10-26 12 7 11 7-7-12-8-12 18-20 17-19-6-7-7-6v24l-20-6-20-6v23l-20-5-20-5 5 8 5 8-18 5c-11 2-55 3-99 2l-80-2-14-9c-8-4-23-10-34-11-10-2-22-8-25-13s-17-11-30-14c-14-2-24-8-23-12l1-9-24-1-24-2-35-38-35-39v-41l43-45c63-66 118-106 189-138l63-30 70-2c81-3 139 7 156 27 6 8 19 14 28 14 20 0 81 37 104 63 21 24 28 19 34-25 7-54 7-70 0-128-11-78-25-118-64-174l-34-49 5-14 6-14-10 6-10 6v-61h21l-6-11-7-10 63 5c35 2 101 8 146 12l83 7 20 34c11 19 20 40 20 48 0 7 4 15 10 17 5 2 11 14 12 28 2 14 9 31 16 38 6 7 12 25 13 40 0 15 3 36 6 47s8 48 12 83l7 64-8 4c-4 3-8 22-8 43s-5 52-11 69l-11 32-11-7-10-6 5 21 6 22h-9c-5 0-9 6-9 13 0 8-9 24-20 37-22 25-26 35-10 25 5-3 47-8 93-11l83-5 13 15 12 15 15-6 14-5 43 20c24 11 49 27 56 36 8 9 19 16 25 16 14 1 57 57 101 132l33 58-5 21-6 22 11-7 12-7v31h-11c-5 0-8 3-5 8 2 4-2 15-9 25l-13 18-49 5c-26 2-86 7-132 10l-84 5-46-10c-25-6-58-13-73-16s-33-11-40-18c-7-6-26-19-42-27l-28-15-29-41c-15-22-31-53-35-67-3-15-10-27-16-27h-9l6-10 6-10h-10c-6 0-11 5-11 11s-10 25-22 41l-21 31-13 55c-7 31-11 60-7 65 3 4 12 36 19 70 11 48 50 145 71 176 4 6 63-21 59-28-6-8 84-69 109-73 11-2 26-9 33-15 7-7 25-16 39-19l26-7 19 12 18 11v-29l58 3c31 1 62 5 67 8 6 3 25 9 42 13 18 3 36 11 39 16 3 6 17 14 31 20l24 9-6 10-6 10h50l6 20 6 20h28l23 30c12 17 28 30 35 30s13 4 13 9 6 16 13 23c32 34 56 114 61 201l3 67-10 40c-6 22-15 40-19 40s-8 6-8 14-9 31-21 50l-20 35-20 6c-11 4-17 10-15 14 5 8-54 47-66 43-5-1-8 2-8 7s-10 13-21 16l-22 7 28 24c15 13 36 26 46 29 11 4 19 10 19 14s11 21 24 36c14 16 23 32 21 36-3 3 4 14 15 24l20 18-2 21c-1 12 6 40 16 61l18 38-6 54-6 54-32 62-31 62-59 57-59 58-27 6c-15 4-32 11-39 16l-12 10-11-7-10-6v26l-10-15-10-15v22l-42-3c-24-1-44-3-45-4-2-2-7-3-12-4-5 0-12-4-16-8s-13-4-21-1l-14 5v-21l-14 5-13 5-39-22c-21-13-48-31-58-42l-19-19-18 72c-19 72-47 130-80 162l-18 17-4-12-5-12-1 29-1 29-6-6-7-6-26 13c-49 26-76 35-116 40-22 3-50 8-62 10l-23 5v-8zm90-82c3-1 8-1 13 0 4 1 34-12 67-29l59-30 12-22c7-13 15-25 19-28s15-30 25-60l18-55v-41l-1-41-16-29-15-29-1 13v13l-9-5c-5-3-22 1-39 10-45 22-70 27-142 26-81 0-128-9-162-33-14-11-32-19-39-19-21 0-103-33-111-44l-7-11-18 11-17 11-7 28c-5 15-6 60-5 99l4 71 21 50c12 28 32 58 44 68s15 15 7 11l-15-7 8 9c5 5 14 9 20 9 7 1 35 12 62 24 64 30 107 39 170 35 28-2 52-4 55-5zm601-235 54-16 52-52 52-52 22-49 22-50v-101l-23-44c-22-42-75-102-116-127-20-14-80-42-128-62l-29-12-11 12-11 12 18-6 17-6v7c0 4-8 18-17 31-9 14-12 21-6 18l11-7 6 15 6 15-18 18-17 18-2 29-2 30-18 15c-10 8-18 20-18 25 0 6-16 31-35 57l-35 47-13 1h-13l5 8 5 8-21 15c-12 8-32 24-47 35l-25 22 24 34 24 35 45 31c89 60 153 72 242 46zM924 2449c32-13 102-56 122-74 6-6 14-22 18-35 3-14 3-19 0-12-8 18-21 15-27-8l-5-20h-14l-13-1-22-35c-13-20-23-40-23-45s-4-9-8-9c-11 0-57-106-54-122 1-5-1-8-6-8h-7l-1-43c0-23-3-64-6-90l-5-48 14 5 13 6-9-19-10-18 11-11 11-11-90 2-90 2-14 11c-8 6-23 14-34 18-11 3-44 28-72 55l-52 49-12 44-11 43 5 65c8 97 19 129 69 206l27 42 34 21c52 32 100 46 168 49l62 3 31-12zm647-40 69-21 64-41 64-42 37-45 38-45 29-65 29-64 9-72 9-72-10-61c-18-115-72-225-147-303l-46-47-8 5-8 5v-26l-32-14-32-14-4 11-3 11-46-29-45-29-61 4c-34 1-91 6-127 10l-65 8-24 18c-13 11-28 19-32 19-10 0-91 60-134 100-66 60-94 104-120 187l-17 53v165l21 65c33 105 93 189 182 255l46 34 59 16c32 8 79 15 105 15h47l12 15 12 15h30c17 0 61-9 99-21zm584-523c65-38 84-53 109-88l28-39-6-14-5-15h19v-132l-15-51-15-52-48-48c-26-26-71-63-101-83l-53-34-45-10c-24-6-66-11-92-11l-47-2-72 24-72 23-31 32-31 32 6 11 7 10 14-6 15-5v22h29l11 20 11 20h14c8 0 21 10 30 23 8 12 17 20 20 17 2-3 22 19 44 49l40 54-6 10-6 10 11-7 12-7 1 8c1 4 3 19 4 32s8 27 15 31l13 8-7 11-7 11h36l-15 10-15 10h25v50h17l-5 25-4 25h27l-15 10c-8 5-11 10-6 10h8l-12 15-12 15 13 4c8 2 21 6 29 9 17 5 105-19 135-37zM903 1754l-6-15 23-6 22-6-11-6-11-7 25-51 24-51 22-16 22-15 10 6 10 6-7-11-6-11 16-13c9-7 26-23 39-35 12-13 29-23 38-23h16l6-20 6-20h20c10 0 19-4 19-8 0-10 50-37 63-34 4 1 7-2 7-8 0-5 7-10 16-10h17l-7-31c-6-32-25-61-88-133l-37-42-48-24-48-24h-55c-30 0-77 4-103 8l-48 7-68 59-68 59-18 43c-10 24-19 45-20 48s-5 13-10 23l-8 19 12 85 12 86 19 36c10 20 40 57 65 83l47 47 42 10c22 5 44 9 48 10l7 1-6-16zm597-390c0-2-9-20-20-40-39-68-64-231-46-299 4-16 19-53 32-81s24-54 24-59c0-4 12-21 26-39 153-187 173-224 189-355l5-41-16-72c-9-40-22-82-29-93s-18-37-25-58l-12-38-22-9c-13-5-43-11-67-13-24-3-52-8-61-12-24-10-23-6 17 61 20 33 43 83 52 113l15 54v145l-17 63c-28 106-76 188-173 296l-46 52-13 43-14 43 7 53c7 68 45 179 83 245l30 53 40-4c23-2 41-6 41-8zm538-289c39-4 72-9 72-11s-14-27-32-56c-40-68-83-114-133-143l-40-23-55-9c-30-5-74-8-96-8l-41 2-30 15-30 15-17-9-16-9v16c0 20 36 101 61 137l19 26 46 26 46 26 47 8c52 9 93 8 199-3zm-778-306 61-30 40-40c21-21 44-39 49-39 6 0 10-4 10-8 0-12-82-72-107-78-13-4-23-9-23-14 0-4-17-12-37-18l-38-11-65 9-65 9-71 36-71 36-42 43-43 44 54 30c43 25 114 52 173 66 6 2 33 1 61-1l52-3 62-31zm-204 1446-5-15h8c5 0 14 7 21 15l12 15h-30l-6-15zm548-3c-33-22-43-84-19-119l14-21 26-5 26-5 29 25 29 24-3 46-3 45-14 9c-17 11-70 11-85 1zm-368-23-26-20v-87l13-11 14-11 6 7 7 6 5-15 6-14 29 4 30 4 15 31c18 36 19 61 4 90-15 28-28 37-55 37h-21l-27-21zm458-217c-5-4-18-27-27-52-21-55-55-93-109-121l-42-21-60-1h-61l-52 27-53 26-32 36c-18 20-39 43-47 52l-15 14-17-21-18-22 20-34c12-19 42-52 67-73l47-39 64-17 64-18 64 5c36 3 70 10 76 15 7 5 27 13 46 17l34 7 38 41 39 40v16c0 9 9 27 19 40l18 24-11 29-11 28-12-4-12-5-3 9-3 9-11-7zm101-271-5-10 8-5 9-5v14c0 17-3 19-12 6z"/></g><g fill="#313778" transform="matrix(.1 0 0 -.1 0 300)"><path d="m1324 2881 6-9-15-6-15-5v17l-37-15c-21-7-46-16-55-20l-18-5v-40l-14 11-14 11-40-34c-23-18-38-36-35-40 3-3 12 2 20 12l14 17-11-23c-6-12-8-26-6-31l6-9-15-5-14-6 6 15 5 15-13-3c-8-2-19-14-25-28l-11-25 16-7 16-7h-22l-21-1 2-54 2-55-7 5-8 4 8-27c4-16 6-33 4-40s1-21 7-32c6-12 8-21 5-21-7 0-45 21-65 36-8 6-37 17-65 23l-50 11-70-4-70-5-37-15c-21-9-38-13-38-10 0 4-9-4-21-17s-25-23-30-21c-5 1-9-4-9-12s-7-22-16-30l-16-16-9 5-9 6v-31h-25l14-9 13-8-20-14-20-14 3-28 3-29-23-20-23-20 7-26 8-27-16-13-16-13 13 6 12 6v-11c0-6-5-20-10-31l-11-19h32l-6-10c-3-5-8-20-10-32l-5-22 21-43 21-43h28l10-24c5-13 17-30 27-36l18-12-19 6-19 6 12-14c6-7 25-19 41-26 17-7 30-17 30-23v-10l6 6 7 6 21-11c11-7 24-11 29-10 4 1 7-3 7-9v-11l14 11 14 12 8-13c5-7 9-19 10-25l2-13h-11c-7 0-18-9-25-21s-16-18-19-15c-4 3-12 1-19-5l-13-10 5-14 5-13-10-7-11-6 6-10 5-9-12 2-12 3-8-30c-5-16-7-36-4-42l4-13h-8c-5 0-9-6-8-12 0-7-1-21-1-31l-2-18-12 7-11 7 7-12c4-7 9-40 10-74l2-62 25-49c41-83 43-86 61-92l17-5-6-15-5-14h8c5 0 23-13 40-30 18-16 34-27 36-24 3 2 19-10 37-28l31-32v39l19-24 18-24 22 6 21 5 5-8 5-9 28 3c15 2 32 4 37 5l10 1-14 9-13 9h54l-12-8-12-7 9-6c4-3 26 3 48 13s43 16 47 14c5-3 8 0 8 6v11l20-3 19-3 16 20 16 20-6-15c-3-8 2-5 11 7 21 29 34 29 35 1l1-23 5 13 5 12 10-6 9-6-20-14-20-14 1-40c0-22 3-40 7-40 3 0 7-17 8-38 2-42 29-112 42-112 7 0 14-16 21-50 1-2-3-6-9-8l-11-4v33l-20-11-20-10 7 16 6 16-21-7-22-6v9c0 6-6 12-14 15l-14 6 5-18 4-18-20 2c-11 1-24 5-28 10l-8 8 12-7 12-6 6 10 6 10-13 1c-7 0-22 2-33 4l-19 4-13-10-12-11-11 7-10 6v-18l-25 2-25 3v-16l-18 4-17 5-23-21c-12-11-22-17-22-13s-6-1-13-12l-14-18-7 11c-10 17-26 15-26-3v-15l-22-10c-36-15-58-36-63-60l-4-22 13-14 14-13 7 7 8 7-7-12-6-12 15-13c9-7 26-23 38-36l21-23 14 6 13 5-6-10-6-10h31v-29l21-11 21-12 14 6 14 5-3-12-2-12h27c14-1 32-6 40-13l14-11 84-3 84-2 3 11 4 12 15-6 15-5 19 17 19 17 11-7 10-6 34 20c18 12 45 33 59 47l26 26 16-16 16-16-11-20-11-20 8-1c4-1 10-1 13-1s6-8 6-19c0-10-4-19-9-19h-8l5-30 4-30h-9c-5 0-8-3-7-7 4-15-45-163-53-163-5 0-9-7-9-15v-16l-15-5c-8-4-13-10-10-14s-2-13-10-20c-18-15-19-28-2-63l12-27h35v25l10-15 10-15v20l63 2c34 2 84 5 112 7l49 4 9 26c5 14 12 26 16 26s7 10 7 23l-1 22 13-3c6-1 11 1 11 5-1 5-1 21 0 36l1 28 9-6 10-5 4 17c3 10 5 36 6 58s6 44 11 49c6 6 10 18 10 27v17l-20-5-20-5v22h37l-1 35c-1 19-3 35-6 35s-5 12-5 28c1 15-4 41-11 59-7 17-10 34-6 37 3 3 1 6-5 6-12 0-33 44-33 70v19l-20 6-20 6v30l22-12 22-12 4 12 4 12 14-12 15-12 52-2 52-2 20 11c11 5 25 9 32 8 22-5 108 45 155 90l46 45 21 41 21 42-17 1h-18l23 9c12 5 22 14 22 20v11l11-7 11-6-10 18-9 19 4 28 4 29-12 14-11 14-9-6c-5-3-13-2-19 1-19 12-228 21-270 12-8-1-26-9-39-16l-23-13 6 11 7 11h-40l-13-18c-7-10-25-22-39-25-30-8-79-53-79-73 0-8-5-14-11-14h-10l5-9c6-10-16-61-26-61-5 0-8-7-8-15v-15h-15c-8 0-14 4-13 8 4 12-44 112-51 108-3-2-6 26-5 62l1 67-11 7-11 8h35l1 13c2 34 12 65 34 105 14 25 25 51 25 59s6 21 14 28l14 14 6-15c3-8 9-13 14-10 4 2 18-9 31-25s28-29 35-29c6 0 22-9 36-20l25-20h58l-7-7-7-8 33-11 33-11 18 15 17 15v-25l15 6 15 5v-29h25c14 0 25 3 25 8 0 4 11 8 25 8 14 1 33 5 43 10 9 4 24 8 33 8 19 1 49 30 49 47v12l7-6 6-7 13 11 14 11 17-6c10-4 15-4 11-1l-6 7 16 18c8 11 19 17 23 14 5-2 18 9 30 26 13 16 28 30 33 30 11 0 60 76 62 95 0 6 5 21 11 35l10 25-2 64-3 64 10-14 9-14-6 22c-9 33-17 67-17 81-1 6-5 12-10 12-4 0-8 9-8 19v19l-16 6-16 6 5 13 4 12-25 25-25 25 8-15 8-15-20 20c-11 11-19 22-17 24 5 6-39 36-48 33-5-1-8 3-8 9v11l-13-5-12-4-14 14-13 14 21 6c12 3 21 10 21 15s13 14 29 19l28 10 10 32 10 32 11-2 12-3 1 18c1 9 1 21 0 25l-1 8 9-5 9-6 11 14 12 14-10 6-10 7 6 17c3 9 11 24 18 32s15 29 18 46l6 32-9 33c-5 19-10 37-10 42 0 14-53 112-64 119-6 4-7 8-3 8s-15 23-43 50l-51 50-8-5-9-5-4 18-5 17-28 3c-16 1-31 6-34 10s-17 7-31 7c-14-1-33 2-42 7l-18 8 6-13 5-14-20-6-21-5v20l-15-12-15-12-42-3-42-3-4-11c-2-6-8-11-13-11h-10l6 10 6 10-16-6c-9-4-14-9-11-12 6-5-57-42-63-37-1 2-5 21-8 42s-9 42-14 48c-5 5-9 17-9 26 0 20-32 79-42 79-5 0-8 7-8 16v15l-10-6-9-6-18 21c-10 12-39 32-64 44l-46 23-37-2-37-3-6 14-5 14h-47l-11-17-12-18 6 18 5 17h-50l5-9zm-94-55c0-3-4-8-10-11l-10-6v10c0 6 5 11 10 11 6 0 10-2 10-4zm307-36c79-39 119-80 121-123 0-4 8-20 17-34l18-26-6-65-6-64-12-14c-14-17-41-18-57-2l-12 12v-14l-1-15-21 25-21 25 6-17 6-18h-8c-5 0-11 9-14 20l-5 20h-42v-20l-24 15-24 16-8-12-7-12 11 7 12 7v-8c0-5-24-14-52-20-29-6-64-14-78-18-14-3-41-8-61-10s-59-13-87-25l-52-22-13 5-13 5-13 70-12 70 9 36c6 20 8 36 6 36s7 23 21 51l26 51-12 16-13 17 14-12c19-17 30-16 30 2v15h-12c-6 0-9 3-6 6 4 3 16 0 28-6l22-12-6 11-7 11h19c11 0 43 13 73 29l54 29 74-3 73-3 65-32zm538-207 40-6 57-58 58-58 26-58 26-58-6-55-5-55-29-53-29-54-23-11c-13-7-23-16-23-22 0-5-7-15-17-22-19-14-110-48-152-57l-27-6-6 10-6 10h32l-15 16c-19 19-21 40-3 47l12 6-23 7-24 7 4 29 5 29-14-5-13-5v40l13-7c6-4-4 9-23 27-19 19-44 54-55 77l-20 42-19 6c-11 4-35 22-53 42l-33 35 6 19c13 42 116 119 189 142l50 15 30-5c17-2 48-7 70-11zm-535-103c0-5-4-10-10-10-5 0-10 5-10 10 0 6 5 10 10 10 6 0 10-4 10-10zm-634-25 32-5 60-40c33-21 65-48 71-59l11-20-30-16-30-16v-14c0-8-4-15-9-15s-12-11-15-25c-3-13-17-36-31-51l-25-27-11-41c-6-23-14-48-17-56-9-24-12-50-15-123l-3-68 9-6 8-5-12-14-12-14-86 4c-48 3-95 8-105 12-17 7-106 83-130 112-6 7-18 21-27 31l-15 17 2 102 2 102 21 43c12 24 21 48 21 54s7 13 15 17l15 5v15c0 36 96 92 179 105 45 7 62 7 127-4zm754-77c57-31 109-71 136-105 16-20 34-41 39-47 21-21 57-111 70-171l13-60-4-65c-6-88-9-107-30-165-48-131-205-300-253-271l-10 7-20-20-20-20-48-7c-63-10-60-10-123-2-144 19-148 21-274 116l-57 43-45 61c-24 33-44 68-44 77s-4 21-10 27l-10 10-9 75c-16 119-4 184 53 310l25 54 34 35c18 20 56 52 84 73l51 37 49 15 48 15h114l8 14 8 14 35 4 35 3 65-22c36-11 76-27 90-35zm520-504 79-47-5-9-5-8h9c6 0 17-18 26-41l16-41 1-71c0-60-2-88-10-114-1-2-1-5-1-8 1-25-68-109-121-148-13-9-39-28-58-42s-40-25-47-25-14-5-16-12l-4-11-35-3c-19-1-34-3-34-4 0-2-10-4-22-5-13-1-23 1-23 5s-25 10-56 12l-56 5-6 10c-4 6-22 14-40 18l-32 7-30 30-30 30v50l17-13 17-14-8 13-7 12h9c6 0 20 11 33 25 13 13 31 25 39 25h15l-13 9-14 8 22 6 22 6-7 11-6 10 8-1c16-4 43 13 43 27v14h12c6 0 9 3 6 6-4 3 5 18 19 32l25 27 18 53c11 29 18 59 16 65-1 7-1 9 1 5 3-5 8-8 12-8h8l-5 31-5 31 13 8 13 8 1 33 1 34 10 7c5 4 31 5 58 3l47-4 80-47zM910 1755c0-7 7-15 15-19 8-3 14-9 13-13s4-25 12-45l14-38h29l-6-7-7-6 16-18c9-10 20-16 25-13l8 5 11-21 11-21 9 6 8 5 11-30 10-30h14c8 0 20-7 27-15l13-16 15 6 15 5-14-16-13-16 15 2c7 1 20 2 27 1l12-1v-33l7 6 6 7 14-18c8-9 12-11 8-4l-6 12h10c6 0 11-5 11-11v-10l9 6 9 5 16-15 15-16-9-24c-18-47-41-85-51-85-5 0-15-14-21-31-6-16-13-28-16-25s-19-9-36-28l-31-34-37-6-38-7v-18l-15 5-15 6v-27l-10 15-9 15-22-13-21-13 7 10 6 11-23 1c-13 0-30 2-38 4s-24 5-35 7-37 12-57 22l-38 18v16c0 8-3 13-6 9-10-10-82 80-104 130l-21 47-1 41c-1 50 20 151 38 187 16 30 104 133 113 132 3 0 24 5 46 12 43 13 55 10 55-11zm566-362-1-18 22 3 23 3-11-28c-6-15-13-37-15-47-2-11-8-22-14-26l-10-6-4-41c-2-22-7-46-11-54-5-7-12-33-15-56l-7-43h9c4 0 8-5 8-11v-10l-11 7-11 7 7-33c9-42 74-180 75-160l1 15 15-27c8-15 23-32 33-37l19-10 6-27c9-33 97-152 114-153l12-1 2-42c4-102-5-238-16-257-3-4-8-23-11-42-3-18-13-41-21-50-7-8-14-25-14-37v-21l-27-14-28-15-78-7-77-7 12 29c6 15 17 35 23 43 20 28 52 95 60 125 5 17 10 37 12 45 5 20 4 128-2 160-14 78-53 197-55 167-1-20-46 39-69 91-6 12-22 35-36 50s-38 45-53 66l-27 39 1 91v91l26 70c14 39 39 93 54 120l29 51 18-4 17-3v31h28l-2-17zm521-307c4-3 11-1 18 4l12 10 34-12c19-6 39-12 46-14l11-3-6-23c-3-13-13-36-23-52s-16-33-13-37c2-4-5-10-16-14l-20-6 5-10 6-9h-21v-31l-12 7-13 8 15-20c8-10 11-16 7-13l-8 7-62-25c-34-13-70-26-80-28-9-2-22-7-29-11l-11-7 8 12 7 13-20-11c-33-18-84-15-159 8l-32 9-3-9-3-8-14 8-13 8 23 64 23 64 41 41 41 40 61 25 61 24 67-2c37 0 69-4 72-7zm-335-48-12-12v10c0 14 12 26 19 19 2-3-1-11-7-17zm-424-251c9-8 35-22 56-31l40-16 37-39 37-38 14 8 14 8v-19c0-11-2-17-4-15-5 5-38-30-52-54l-11-21h-59v-33l-6 6-7 6-34-14-35-15h-83l15 10 15 10h-12c-6 0-14-4-17-8-12-19-106 5-106 28v9l-14-5-14-6-21 12-22 11 6 9 6 10-15-6-16-6v32l-12-3-12-2-1 11c0 5-17 25-37 43l-38 33 5 8c10 16 120 74 165 87l45 13 78-4 78-4 17-15zm645-2c-3-9-8-14-10-11-3 3-2 9 2 15 9 16 15 13 8-4zm-33-5c0-5-2-10-4-10-3 0-8 5-11 10l-6 10h10c6 0 11-4 11-10zm-248 1425-20-15-6-36-7-36 16-25 16-25 14 5 13 5 9-9 10-10 28 23 28 24v84l-12 13-11 14-29 1-29 1-20-14zm-363-19-25-25-2-39-3-39 13-11c7-6 16-11 20-11 4-1 14-4 22-7s23-4 33-2l18 3 18 38 19 37-19 38-18 37-26 3-25 3-25-25zm455-218c-4-6-21-38-37-70l-29-59-37-24-36-24-49-11-49-11-34 6c-19 3-55 14-79 26l-46 20-48 51-49 52-20-18-20-18 26-39c30-46 75-82 140-111l48-22 89 1 90 1 10 13c6 8 22 16 35 17 14 2 35 11 48 19l23 15v29l9-6 10-5 6 20c3 11 11 20 17 20h11l-6 6-6 7 19 25c23 28 25 45 9 73l-10 20-15-12-14-12 6 17c7 18-1 22-12 4z"/></g></g></svg>